<svg width="9" height="17" viewBox="0 0 9 17" fill="none" xmlns="http://www.w3.org/2000/svg">
<path d="M6.31934 11.5234C6.31934 11.0254 6.16113 10.6152 5.84473 10.293C5.52832 9.96484 5.00098 9.67188 4.2627 9.41406C3.52441 9.15039 2.9502 8.90723 2.54004 8.68457C1.1748 7.95215 0.492188 6.86816 0.492188 5.43262C0.492188 4.45996 0.788086 3.66016 1.37988 3.0332C1.97168 2.40625 2.77441 2.03418 3.78809 1.91699V0.000976562H5.19434V1.93457C6.21387 2.08105 7.00195 2.51465 7.55859 3.23535C8.11523 3.9502 8.39355 4.88184 8.39355 6.03027H6.2666C6.2666 5.29199 6.09961 4.71191 5.76562 4.29004C5.4375 3.8623 4.98926 3.64844 4.4209 3.64844C3.8584 3.64844 3.41895 3.80078 3.10254 4.10547C2.78613 4.41016 2.62793 4.84668 2.62793 5.41504C2.62793 5.9248 2.7832 6.33496 3.09375 6.64551C3.41016 6.9502 3.94336 7.24023 4.69336 7.51562C5.44336 7.79102 6.03223 8.0459 6.45996 8.28027C6.8877 8.51465 7.24805 8.78418 7.54102 9.08887C7.83398 9.3877 8.05957 9.7334 8.21777 10.126C8.37598 10.5186 8.45508 10.9785 8.45508 11.5059C8.45508 12.4961 8.15039 13.2988 7.54102 13.9141C6.9375 14.5293 6.09375 14.8926 5.00977 15.0039V16.7178H3.6123V15.0127C2.45215 14.8838 1.55859 14.4678 0.931641 13.7646C0.310547 13.0615 0 12.1299 0 10.9697H2.13574C2.13574 11.708 2.32031 12.2793 2.68945 12.6836C3.06445 13.0879 3.5918 13.29 4.27148 13.29C4.93945 13.29 5.44629 13.1289 5.79199 12.8066C6.14355 12.4844 6.31934 12.0566 6.31934 11.5234Z" fill="white"/>
</svg>
