<svg width="18" height="30" viewBox="0 0 18 30" fill="none" xmlns="http://www.w3.org/2000/svg">
<path d="M0.47831 16.1706L13.8287 29.5207C14.1375 29.8298 14.5497 30 14.9892 30C15.4287 30 15.8409 29.8298 16.1496 29.5207L17.1328 28.5378C17.7726 27.8973 17.7726 26.8564 17.1328 26.2169L5.92217 15.0062L17.1452 3.78314C17.454 3.47412 17.6245 3.06217 17.6245 2.6229C17.6245 2.18315 17.454 1.7712 17.1452 1.46194L16.1621 0.479263C15.8531 0.17024 15.4411 0 15.0016 0C14.5621 0 14.1499 0.17024 13.8411 0.479263L0.47831 13.8416C0.1688 14.1516 -0.00119781 14.5655 -0.000221252 15.0055C-0.00119781 15.4472 0.1688 15.8608 0.47831 16.1706Z" fill="#E0E0E0"/>
</svg>
